# Blender 3.6.23
# www.blender.org
mtllib 23. Drawing Paper.mtl
o polygon0
v 13.245830 -13.328609 0.122560
v 10.764390 -14.113279 0.424806
v 13.651589 -11.341800 0.347169
v 10.572490 -11.341800 0.347169
v 13.651589 -8.570801 0.270020
v 10.572490 -8.570801 0.270020
v 13.500710 -5.799316 0.270020
v 10.316140 -5.799316 0.270020
v 13.587629 -3.028320 0.192383
v 10.438700 -2.853516 0.192383
v 13.441139 -0.256836 0.041016
v 10.501200 -0.148926 0.041016
v 13.877669 2.813477 0.118652
v 10.577860 2.848145 -0.050781
v 13.990950 6.074707 0.552246
v 10.640360 5.636719 0.027343
v 14.053940 9.208496 0.544921
v 10.874740 8.551270 0.027343
v 14.028060 11.797359 0.544433
v 10.874740 11.368159 0.424804
v 13.754129 14.021001 0.420897
v 10.954820 14.428220 0.278807
v 7.685285 -14.113279 0.424806
v 7.493390 -11.341800 0.347169
v 7.493390 -8.570801 0.270020
v 7.493390 -5.799316 0.270020
v 7.683331 -2.853516 0.038574
v 7.495831 -0.148926 -0.112305
v 7.479718 2.848145 -0.204102
v 7.542218 5.636719 -0.125977
v 7.745343 8.551270 -0.125977
v 7.745343 11.368159 0.109374
v 7.748761 14.428220 0.278807
v 4.606183 -14.060550 0.424806
v 4.606183 -11.341800 0.347169
v 4.552960 -8.458984 0.046387
v 4.552960 -5.719727 0.046387
v 4.625714 -2.807129 0.038574
v 4.438703 -0.133301 -0.130371
v 4.327863 2.832031 -0.204102
v 4.390363 5.588379 -0.125977
v 4.337140 8.572754 -0.119141
v 4.337140 11.255859 0.109374
v 4.310285 14.320310 0.278808
v 1.527081 -14.113279 0.201661
v 1.527081 -11.341800 0.201661
v 1.572980 -8.458984 0.046387
v 1.572980 -5.719727 -0.106933
v 1.572980 -2.980469 -0.255859
v 0.997296 -0.241211 -0.201660
v 0.854230 2.797363 -0.204102
v 1.429913 5.621094 -0.272461
v 1.108624 8.765137 -0.131837
v 1.108624 11.429689 0.188476
v 1.125714 14.286619 0.278808
v -0.012469 -14.113279 0.201661
v -0.012469 -11.341800 0.201661
v 0.051495 -8.458984 0.046387
v 0.051495 -5.719727 -0.106933
v 0.051495 -2.980469 -0.424804
v -0.332782 -0.241211 -0.201660
v -0.522723 2.797363 -0.350098
v 0.052960 5.621094 -0.272461
v -0.371845 8.765137 0.037109
v -0.371845 11.429689 0.188476
v -0.371845 14.286619 0.278808
v -1.552020 -14.113279 0.201661
v -1.552020 -11.341800 0.201661
v -1.470477 -8.458984 0.046387
v -1.470477 -5.719727 -0.178222
v -1.470477 -2.980469 -0.424804
v -1.854755 -0.241211 -0.201660
v -2.091571 2.797363 -0.421387
v -1.771747 5.621094 -0.272461
v -1.851825 8.765137 -0.009278
v -1.851825 11.429689 0.142089
v -1.869403 14.286619 0.378905
v -5.198504 -14.079590 0.488282
v -5.076434 -11.542480 0.424806
v -5.265399 -8.471191 0.198731
v -5.265399 -5.763184 -0.016601
v -5.341083 -2.835938 -0.247558
v -5.116473 0.101562 -0.202637
v -5.116473 2.897949 -0.271485
v -5.116473 5.693848 -0.104493
v -4.998797 8.597656 -0.009278
v -4.812762 11.429689 0.142089
v -5.190692 14.391600 0.546386
v -8.405047 -13.974119 0.167482
v -8.282489 -11.542480 -0.102538
v -8.362079 -8.581543 0.069337
v -8.362079 -5.842285 -0.016601
v -8.282489 -2.885742 -0.242676
v -8.313739 0.085449 -0.197266
v -8.313739 2.914063 0.120605
v -8.313739 5.742676 -0.099610
v -8.313739 8.571289 -0.066895
v -8.050067 11.539550 0.140624
v -8.223407 14.391600 0.546386
v -11.611099 -14.050290 0.167482
v -11.488540 -11.542480 -0.102538
v -11.406020 -8.581543 -0.180175
v -11.406020 -5.842285 -0.054199
v -11.488540 -2.885742 -0.208984
v -11.456320 0.085449 0.075195
v -11.456320 2.914063 0.120605
v -11.456320 5.742676 0.092773
v -11.456320 8.571289 0.125488
v -11.488540 11.542480 0.186523
v -11.598410 14.495120 0.546386
v -14.345969 -14.069819 0.540040
v -14.695089 -11.542480 -0.102538
v -14.449969 -8.581543 -0.031249
v -14.704360 -5.361328 0.540528
v -14.620379 -3.047852 0.540039
v -14.487570 0.367676 0.541016
v -14.701429 2.961426 0.541015
v -14.599380 5.742676 0.092773
v -14.599380 8.571289 0.170410
v -14.695089 11.542480 0.035155
v -14.345480 14.102050 0.546386
vn 0.0364 0.0049 0.9993
vn 0.0590 -0.0335 0.9977
vn 0.0122 0.0178 0.9998
vn -0.0000 0.0140 0.9999
vn -0.0000 0.0139 0.9999
vn -0.0000 0.0268 0.9996
vn 0.0017 0.0411 0.9992
vn -0.0178 0.0474 0.9987
vn -0.0181 0.0281 0.9994
vn -0.0285 0.0382 0.9989
vn -0.0640 -0.0347 0.9973
vn -0.0563 -0.0181 0.9982
vn -0.1234 -0.0323 0.9918
vn -0.0892 -0.0238 0.9957
vn -0.0927 -0.0431 0.9948
vn -0.0390 0.0494 0.9980
vn -0.0378 0.0133 0.9992
vn -0.0000 0.0269 0.9996
vn -0.0349 0.0240 0.9991
vn -0.0349 0.0241 0.9991
vn -0.0256 0.0010 0.9997
vn -0.0341 -0.0154 0.9993
vn -0.0301 -0.0484 0.9984
vn -0.0301 -0.0635 0.9975
vn -0.0240 -0.0291 0.9993
vn -0.0427 0.0359 0.9984
vn -0.0532 0.0247 0.9983
vn -0.0426 0.0361 0.9984
vn -0.0182 0.0281 0.9994
vn -0.0048 -0.0037 1.0000
vn 0.0025 -0.0494 0.9988
vn 0.0023 -0.0803 0.9968
vn -0.0534 0.0091 0.9985
vn -0.0451 -0.0034 0.9990
vn -0.0109 -0.0200 0.9997
vn 0.0181 -0.0664 0.9976
vn 0.0180 -0.0664 0.9976
vn 0.0111 -0.0337 0.9994
vn -0.0058 0.0580 0.9983
vn -0.0255 0.0780 0.9966
vn 0.0214 -0.0824 0.9964
vn 0.0025 -0.0492 0.9988
vn 0.0364 0.0048 0.9993
vn 0.0300 0.0322 0.9990
vn 0.0109 0.0686 0.9976
vn 0.0098 0.0841 0.9964
vn 0.0078 0.0035 1.0000
vn 0.0033 -0.0692 0.9976
vn 0.0033 -0.0691 0.9976
vn 0.0219 -0.0164 0.9996
vn 0.0495 -0.0138 0.9987
vn 0.0322 -0.0328 0.9989
vn 0.0071 -0.0942 0.9955
vn 0.0110 -0.1230 0.9923
vn -0.0656 0.0910 0.9937
vn -0.0688 0.0426 0.9967
vn -0.0533 0.0091 0.9985
vn 0.0121 0.0178 0.9998
vn 0.0388 -0.0447 0.9982
vn -0.0051 -0.1430 0.9897
vn 0.0299 0.1449 0.9890
vn 0.0668 -0.0064 0.9977
vn 0.1120 -0.0028 0.9937
vn 0.1061 -0.0428 0.9934
vn 0.0701 0.0150 0.9974
vn 0.0413 0.0240 0.9989
vn 0.0219 -0.0163 0.9996
vn 0.0609 0.1807 0.9817
vn 0.0426 0.0906 0.9950
vn 0.0658 -0.0558 0.9963
vn 0.1572 -0.0413 0.9867
vn 0.1992 -0.0100 0.9799
vn 0.1660 -0.0258 0.9858
vn 0.1030 0.0402 0.9939
vn -0.0158 -0.0719 0.9973
vn -0.0148 -0.1554 0.9877
vt 0.957153 0.128204
vt 0.853851 0.035248
vt 0.957153 0.035248
vt 0.853851 0.128204
vt 0.957153 0.221161
vt 0.853851 0.221161
vt 0.957153 0.314117
vt 0.853851 0.314117
vt 0.957153 0.407074
vt 0.853851 0.407074
vt 0.957153 0.500031
vt 0.853851 0.500031
vt 0.957153 0.592987
vt 0.853851 0.592987
vt 0.957153 0.685944
vt 0.853851 0.685944
vt 0.957153 0.778900
vt 0.853851 0.778900
vt 0.957153 0.871857
vt 0.853851 0.871857
vt 0.957153 0.964813
vt 0.853851 0.964813
vt 0.750580 0.035248
vt 0.750580 0.128204
vt 0.750580 0.221161
vt 0.750580 0.314117
vt 0.750580 0.407074
vt 0.750580 0.500031
vt 0.750580 0.592987
vt 0.750580 0.685944
vt 0.750580 0.778900
vt 0.750580 0.871857
vt 0.750580 0.964813
vt 0.647278 0.035248
vt 0.647278 0.128204
vt 0.647278 0.221161
vt 0.647278 0.314117
vt 0.647278 0.407074
vt 0.647278 0.500031
vt 0.647278 0.592987
vt 0.647278 0.685944
vt 0.647278 0.778900
vt 0.647278 0.871857
vt 0.647278 0.964813
vt 0.544006 0.035248
vt 0.544006 0.128204
vt 0.544006 0.221161
vt 0.544006 0.314117
vt 0.544006 0.407074
vt 0.544006 0.500031
vt 0.544006 0.592987
vt 0.544006 0.685944
vt 0.544006 0.778900
vt 0.544006 0.871857
vt 0.544006 0.964813
vt 0.498596 0.035248
vt 0.498596 0.128204
vt 0.498596 0.221161
vt 0.498596 0.314117
vt 0.498596 0.407074
vt 0.498596 0.500031
vt 0.498596 0.592987
vt 0.498596 0.685944
vt 0.498596 0.778900
vt 0.498596 0.871857
vt 0.498596 0.964813
vt 0.440735 0.035248
vt 0.440735 0.128204
vt 0.440735 0.221161
vt 0.440735 0.314117
vt 0.440735 0.407074
vt 0.440735 0.500031
vt 0.440735 0.592987
vt 0.440735 0.685944
vt 0.440735 0.778900
vt 0.440735 0.871857
vt 0.440735 0.964813
vt 0.337433 0.035248
vt 0.337433 0.128204
vt 0.337433 0.221161
vt 0.337433 0.314117
vt 0.337433 0.407074
vt 0.337433 0.500031
vt 0.337433 0.592987
vt 0.337433 0.685944
vt 0.337433 0.778900
vt 0.337433 0.871857
vt 0.337433 0.964813
vt 0.234161 0.035248
vt 0.234161 0.128204
vt 0.234161 0.221161
vt 0.234161 0.314117
vt 0.234161 0.407074
vt 0.234161 0.500031
vt 0.234161 0.592987
vt 0.234161 0.685944
vt 0.234161 0.778900
vt 0.234161 0.871857
vt 0.234161 0.964813
vt 0.130859 0.035248
vt 0.130859 0.128204
vt 0.130859 0.221161
vt 0.130859 0.314117
vt 0.130859 0.407074
vt 0.130859 0.500031
vt 0.130859 0.592987
vt 0.130859 0.685944
vt 0.130859 0.778900
vt 0.130859 0.871857
vt 0.130859 0.964813
vt 0.027588 0.035248
vt 0.027588 0.128204
vt 0.027588 0.221161
vt 0.027588 0.314117
vt 0.027588 0.407074
vt 0.027588 0.500031
vt 0.027588 0.592987
vt 0.027588 0.685944
vt 0.027588 0.778900
vt 0.027588 0.871857
vt 0.027588 0.964813
s 1
usemtl lambert194
f 3/1/1 2/2/1 1/3/2
f 4/4/3 2/2/1 3/1/1
f 5/5/4 4/4/3 3/1/1
f 6/6/4 4/4/3 5/5/4
s 0
f 7/7/5 6/6/5 5/5/5
s 1
f 8/8/6 6/6/4 7/7/4
f 9/9/7 8/8/6 7/7/4
f 10/10/8 8/8/6 9/9/7
f 11/11/9 10/10/8 9/9/7
f 12/12/10 10/10/8 11/11/9
f 13/13/11 12/12/10 11/11/9
f 14/14/12 12/12/10 13/13/11
f 15/15/13 14/14/12 13/13/11
f 16/16/14 14/14/12 15/15/13
f 17/17/13 16/16/14 15/15/13
f 18/18/15 16/16/14 17/17/13
f 19/19/12 18/18/15 17/17/13
f 20/20/11 18/18/15 19/19/12
f 21/21/16 20/20/11 19/19/12
f 22/22/17 20/20/11 21/21/16
f 4/4/3 23/23/18 2/2/1
f 24/24/8 23/23/18 4/4/3
f 6/6/4 24/24/8 4/4/3
f 25/25/19 24/24/8 6/6/4
f 8/8/6 25/25/19 6/6/4
f 26/26/20 25/25/19 8/8/6
f 10/10/8 26/26/20 8/8/6
f 27/27/16 26/26/20 10/10/8
f 12/12/10 27/27/16 10/10/8
f 28/28/8 27/27/16 12/12/10
f 14/14/12 28/28/8 12/12/10
f 29/29/21 28/28/8 14/14/12
f 16/16/14 29/29/21 14/14/12
f 30/30/22 29/29/21 16/16/14
f 18/18/15 30/30/22 16/16/14
f 31/31/23 30/30/22 18/18/15
f 20/20/11 31/31/23 18/18/15
f 32/32/24 31/31/23 20/20/11
f 22/22/17 32/32/24 20/20/11
f 33/33/25 32/32/24 22/22/17
f 24/24/8 34/34/17 23/23/18
f 35/35/10 34/34/17 24/24/8
f 25/25/19 35/35/10 24/24/8
f 36/36/26 35/35/10 25/25/19
f 26/26/20 36/36/26 25/25/19
f 37/37/27 36/36/26 26/26/20
f 27/27/16 37/37/27 26/26/20
f 38/38/28 37/37/27 27/27/16
f 28/28/8 38/38/28 27/27/16
f 39/39/29 38/38/28 28/28/8
f 29/29/21 39/39/29 28/28/8
f 40/40/30 39/39/29 29/29/21
f 30/30/22 40/40/30 29/29/21
f 41/41/30 40/40/30 30/30/22
f 31/31/23 41/41/30 30/30/22
f 42/42/31 41/41/30 31/31/23
f 32/32/24 42/42/31 31/31/23
f 43/43/32 42/42/31 32/32/24
f 33/33/25 43/43/32 32/32/24
f 44/44/31 43/43/32 33/33/25
f 35/35/10 45/45/17 34/34/17
f 46/46/10 45/45/17 35/35/10
f 36/36/26 46/46/10 35/35/10
f 47/47/8 46/46/10 36/36/26
f 37/37/27 47/47/8 36/36/26
f 48/48/16 47/47/8 37/37/27
f 38/38/28 48/48/16 37/37/27
f 49/49/33 48/48/16 38/38/28
f 39/39/29 49/49/33 38/38/28
f 50/50/34 49/49/33 39/39/29
f 40/40/30 50/50/34 39/39/29
f 51/51/17 50/50/34 40/40/30
f 41/41/30 51/51/17 40/40/30
f 52/52/35 51/51/17 41/41/30
f 42/42/31 52/52/35 41/41/30
f 53/53/36 52/52/35 42/42/31
f 43/43/32 53/53/36 42/42/31
f 54/54/37 53/53/36 43/43/32
f 44/44/31 54/54/37 43/43/32
f 55/55/38 54/54/37 44/44/31
f 46/46/10 56/56/30 45/45/17
f 57/57/18 56/56/30 46/46/10
f 47/47/8 57/57/18 46/46/10
f 58/58/39 57/57/18 47/47/8
f 48/48/16 58/58/39 47/47/8
f 59/59/40 58/58/39 48/48/16
f 49/49/33 59/59/40 48/48/16
f 60/60/17 59/59/40 49/49/33
f 50/50/34 60/60/17 49/49/33
f 61/61/22 60/60/17 50/50/34
f 51/51/17 61/61/22 50/50/34
f 62/62/17 61/61/22 51/51/17
f 52/52/35 62/62/17 51/51/17
f 63/63/31 62/62/17 52/52/35
f 53/53/36 63/63/31 52/52/35
f 64/64/41 63/63/31 53/53/36
f 54/54/37 64/64/41 53/53/36
f 65/65/31 64/64/41 54/54/37
f 55/55/38 65/65/31 54/54/37
f 66/66/42 65/65/31 55/55/38
f 57/57/18 67/67/43 56/56/30
f 68/68/44 67/67/43 57/57/18
f 58/58/39 68/68/44 57/57/18
f 69/69/45 68/68/44 58/58/39
f 59/59/40 69/69/45 58/58/39
f 70/70/46 69/69/45 59/59/40
f 60/60/17 70/70/46 59/59/40
f 71/71/3 70/70/46 60/60/17
f 61/61/22 71/71/3 60/60/17
f 72/72/47 71/71/3 61/61/22
f 62/62/17 72/72/47 61/61/22
f 73/73/47 72/72/47 62/62/17
f 63/63/31 73/73/47 62/62/17
f 74/74/48 73/73/47 63/63/31
f 64/64/41 74/74/48 63/63/31
f 75/75/48 74/74/48 64/64/41
f 65/65/31 75/75/48 64/64/41
f 76/76/49 75/75/48 65/65/31
f 66/66/42 76/76/49 65/65/31
f 77/77/41 76/76/49 66/66/42
f 68/68/44 78/78/10 67/67/43
f 79/79/10 78/78/10 68/68/44
f 69/69/45 79/79/10 68/68/44
f 80/80/8 79/79/10 69/69/45
f 70/70/46 80/80/8 69/69/45
f 81/81/45 80/80/8 70/70/46
f 71/71/3 81/81/45 70/70/46
f 82/82/3 81/81/45 71/71/3
f 72/72/47 82/82/3 71/71/3
f 83/83/50 82/82/3 72/72/47
f 73/73/47 83/83/50 72/72/47
f 84/84/51 83/83/50 73/73/47
f 74/74/48 84/84/51 73/73/47
f 85/85/52 84/84/51 74/74/48
f 75/75/48 85/85/52 74/74/48
f 86/86/31 85/85/52 75/75/48
f 76/76/49 86/86/31 75/75/48
f 87/87/53 86/86/31 76/76/49
f 77/77/41 87/87/53 76/76/49
f 88/88/54 87/87/53 77/77/41
f 79/79/10 89/89/55 78/78/10
f 90/90/56 89/89/55 79/79/10
f 80/80/8 90/90/56 79/79/10
f 91/91/57 90/90/56 80/80/8
f 81/81/45 91/91/57 80/80/8
f 92/92/8 91/91/57 81/81/45
f 82/82/3 92/92/8 81/81/45
f 93/93/58 92/92/8 82/82/3
f 83/83/50 93/93/58 82/82/3
f 94/94/59 93/93/58 83/83/50
f 84/84/51 94/94/59 83/83/50
f 95/95/51 94/94/59 84/84/51
f 85/85/52 95/95/51 84/84/51
f 96/96/1 95/95/51 85/85/52
f 86/86/31 96/96/1 85/85/52
f 97/97/38 96/96/1 86/86/31
f 87/87/53 97/97/38 86/86/31
f 98/98/53 97/97/38 87/87/53
f 88/88/54 98/98/53 87/87/53
f 99/99/60 98/98/53 88/88/54
f 90/90/56 100/100/61 89/89/55
f 101/101/45 100/100/61 90/90/56
f 91/91/57 101/101/45 90/90/56
f 102/102/38 101/101/45 91/91/57
f 92/92/8 102/102/38 91/91/57
f 103/103/62 102/102/38 92/92/8
f 93/93/58 103/103/62 92/92/8
f 104/104/63 103/103/62 93/93/58
f 94/94/59 104/104/63 93/93/58
f 105/105/64 104/104/63 94/94/59
f 95/95/51 105/105/64 94/94/59
f 106/106/65 105/105/64 95/95/51
f 96/96/1 106/106/65 95/95/51
f 107/107/66 106/106/65 96/96/1
f 97/97/38 107/107/66 96/96/1
f 108/108/67 107/107/66 97/97/38
f 98/98/53 108/108/67 97/97/38
f 109/109/32 108/108/67 98/98/53
f 99/99/60 109/109/32 98/98/53
f 110/110/60 109/109/32 99/99/60
f 101/101/45 111/111/68 100/100/61
f 112/112/69 111/111/68 101/101/45
f 102/102/38 112/112/69 101/101/45
f 113/113/70 112/112/69 102/102/38
f 103/103/62 113/113/70 102/102/38
f 114/114/71 113/113/70 103/103/62
f 104/104/63 114/114/71 103/103/62
f 115/115/72 114/114/71 104/104/63
f 105/105/64 115/115/72 104/104/63
f 116/116/73 115/115/72 105/105/64
f 106/106/65 116/116/73 105/105/64
f 117/117/74 116/116/73 106/106/65
f 107/107/66 117/117/74 106/106/65
f 118/118/66 117/117/74 107/107/66
f 108/108/67 118/118/66 107/107/66
f 119/119/30 118/118/66 108/108/67
f 109/109/32 119/119/30 108/108/67
f 120/120/75 119/119/30 109/109/32
f 110/110/60 120/120/75 109/109/32
f 121/121/76 120/120/75 110/110/60
